<svg width="32" height="32" viewBox="0 0 32 32" fill="none" xmlns="http://www.w3.org/2000/svg">
<g clip-path="url(#clip0_7854_414)">
<path d="M0.5 16C0.5 24.5625 7.4375 31.5 16 31.5C24.5625 31.5 31.5 24.5625 31.5 16C31.5 7.4375 24.5625 0.5 16 0.5C7.4375 0.5 0.5 7.4375 0.5 16ZM16 2.5C23.4187 2.5 29.5 8.50625 29.5 16C29.5 23.4187 23.4937 29.5 16 29.5C8.58125 29.5 2.5 23.4937 2.5 16C2.5 8.58125 8.50625 2.5 16 2.5ZM16.7812 8.28125L23.975 15.4688C24.2688 15.7625 24.2688 16.2375 23.975 16.5312L16.7812 23.7188C16.4875 24.0125 16.0125 24.0125 15.7188 23.7188L15.2875 23.2875C14.9937 22.9938 14.9937 22.5063 15.3 22.2188L20.6438 17.0625H8.75C8.3375 17.0625 8 16.725 8 16.3125V15.6875C8 15.275 8.3375 14.9375 8.75 14.9375H20.6438L15.2938 9.78125C14.9938 9.4875 14.9875 9.00625 15.2812 8.7125L15.7125 8.28125C16.0125 7.9875 16.4875 7.9875 16.7812 8.28125Z" fill="#3257AB"/>
</g>
<defs>
<clipPath id="clip0_7854_414">
<rect width="32" height="32" fill="white" transform="translate(32 32) rotate(-180)"/>
</clipPath>
</defs>
</svg>
