<svg width="66" height="66" viewBox="0 0 66 66" fill="none" xmlns="http://www.w3.org/2000/svg">
<g clip-path="url(#clip0_7853_91)">
<path d="M65.9951 61.4941L62.6951 26.3064C62.6601 25.9353 62.4399 25.6066 62.1096 25.4341L49.4596 18.8234C49.4361 18.8112 49.4089 18.8138 49.3848 18.8033C49.3128 18.7721 49.2362 18.7574 49.1569 18.7421C49.0806 18.7271 49.0084 18.7097 48.9311 18.711C48.9137 18.7113 48.8987 18.7032 48.8811 18.7042C48.8187 18.7081 48.7663 18.7369 48.7074 18.7507C48.6476 18.7645 48.5852 18.7586 48.5277 18.7826L44.6117 20.4105C44.0504 20.6436 43.7851 21.2876 44.0182 21.8483C44.2518 22.4101 44.8948 22.6755 45.456 22.4418L47.948 21.4059L50.0015 54.2336L34.0999 60.0251V37.1866C34.0999 36.5791 33.6074 36.0867 32.9999 36.0867C32.3924 36.0867 31.9 36.5792 31.9 37.1866V60.0251L15.9984 54.2336L18.0518 21.4059L20.5439 22.4418C21.1056 22.6754 21.7491 22.4101 21.9817 21.8483C22.2147 21.2876 21.9495 20.6436 21.3882 20.4105L17.4722 18.7826C17.4149 18.7588 17.3528 18.7647 17.2932 18.751C17.2341 18.7372 17.1813 18.7082 17.1187 18.7042C17.1012 18.7033 17.0862 18.7114 17.0688 18.7113C16.9889 18.7099 16.9144 18.7283 16.8356 18.7443C16.7619 18.7594 16.6903 18.7725 16.6228 18.8014C16.5961 18.8127 16.5662 18.81 16.5403 18.8234L3.89033 25.4341C3.56008 25.6066 3.33977 25.9353 3.30484 26.3064L0.0048407 61.4941C-0.0322843 61.8889 0.146122 62.273 0.47161 62.4996C0.796067 62.7257 1.2203 62.7601 1.57647 62.5883L14.9091 56.1784L32.6235 62.6302C32.8663 62.7194 33.1338 62.7194 33.3766 62.6302L51.091 56.1784L64.4237 62.5883C64.5746 62.6607 64.738 62.6968 64.9001 62.6968C65.1208 62.6968 65.3411 62.6302 65.5285 62.4997C65.8538 62.2728 66.0321 61.8888 65.9951 61.4941ZM13.7914 54.2742L2.37646 59.7624L5.43901 27.1072L15.8303 21.6766L13.7914 54.2742ZM52.2081 54.2742L50.1692 21.6766L60.5605 27.1072L63.6231 59.7624L52.2081 54.2742Z" fill="#7096EF"/>
<path d="M23.3078 18.903L32.0551 33.5629C32.2538 33.8958 32.6126 34.0994 32.9998 34.0994C33.3871 34.0994 33.7458 33.8958 33.9446 33.5629L42.7156 18.8611C43.1378 18.077 43.4203 17.4126 43.604 16.7691C43.8666 15.8501 43.9999 14.8957 43.9999 13.9332C43.9999 12.4931 43.7072 11.0962 43.1293 9.77967C42.5728 8.51265 41.7763 7.37505 40.7633 6.39962C39.7536 5.42689 38.5773 4.66312 37.2683 4.12983C34.5613 3.02769 31.4385 3.02769 28.7315 4.12983C27.4226 4.66312 26.2463 5.42702 25.2371 6.39962C24.2235 7.37505 23.427 8.51265 22.8706 9.78018C22.2927 11.0961 22 12.4931 22 13.9332C22 14.8957 22.1332 15.8501 22.3959 16.7696C22.5794 17.4125 22.862 18.0768 23.3078 18.903ZM24.8848 10.6647C25.3253 9.66146 25.9574 8.75963 26.7631 7.984C27.5709 7.2058 28.5125 6.59452 29.5609 6.16746C30.6501 5.72376 31.8071 5.49933 33 5.49933C34.1929 5.49933 35.3498 5.72389 36.439 6.16746C37.4874 6.59439 38.4291 7.20567 39.2373 7.984C40.0425 8.75963 40.6746 9.66133 41.1151 10.6642C41.5695 11.6997 41.8 12.7993 41.8 13.933C41.8 14.6914 41.6953 15.4423 41.4891 16.1648C41.35 16.6514 41.1244 17.1767 40.8027 17.7761L33 30.8526L25.221 17.818C24.8756 17.1767 24.6501 16.6514 24.511 16.1653C24.3047 15.4424 24.2 14.6915 24.2 13.933C24.1999 12.7993 24.4304 11.6997 24.8848 10.6647Z" fill="#7096EF"/>
<path d="M33 19.8028C36.0326 19.8028 38.5001 17.3353 38.5001 14.3028C38.5001 11.2703 36.0326 8.80273 33 8.80273C29.9675 8.80273 27.5 11.2703 27.5 14.3028C27.5 17.3353 29.9675 19.8028 33 19.8028ZM33 11.0028C34.8198 11.0028 36.3 12.483 36.3 14.3028C36.3 16.1225 34.8198 17.6028 33 17.6028C31.1803 17.6028 29.7 16.1225 29.7 14.3028C29.7 12.483 31.1803 11.0028 33 11.0028Z" fill="#7096EF"/>
</g>
<defs>
<clipPath id="clip0_7853_91">
<rect width="66" height="66" fill="white"/>
</clipPath>
</defs>
</svg>
