<svg width="66" height="66" viewBox="0 0 66 66" fill="none" xmlns="http://www.w3.org/2000/svg">
<g clip-path="url(#clip0_7854_297)">
<path d="M57.9811 65.0292H8.00551C6.13747 65.024 4.34768 64.2784 3.02859 62.9556C1.70949 61.6329 0.968743 59.8411 0.96875 57.973V18.4409C0.968748 16.5712 1.71083 14.7779 3.03202 13.4549C4.35321 12.1319 6.14549 11.3873 8.01522 11.3848H18.6917C18.9491 11.3848 19.196 11.487 19.378 11.669C19.56 11.8511 19.6623 12.0979 19.6623 12.3554C19.6623 12.6128 19.56 12.8596 19.378 13.0417C19.196 13.2237 18.9491 13.3259 18.6917 13.3259H8.01522C6.66032 13.3285 5.36179 13.8685 4.40464 14.8275C3.44749 15.7865 2.90992 17.086 2.90993 18.4409V57.973C2.90992 59.3262 3.44615 60.6243 4.40121 61.583C5.35626 62.5417 6.6523 63.0829 8.00551 63.088H57.9811C59.336 63.0854 60.6345 62.5454 61.5917 61.5864C62.5488 60.6275 63.0864 59.3279 63.0864 57.973V18.4409C63.0838 17.0851 62.5441 15.7856 61.5854 14.8269C60.6267 13.8682 59.3272 13.3285 57.9714 13.3259H47.2949C47.0375 13.3259 46.7906 13.2237 46.6086 13.0417C46.4266 12.8596 46.3243 12.6128 46.3243 12.3554C46.3243 12.0979 46.4266 11.8511 46.6086 11.669C46.7906 11.487 47.0375 11.3848 47.2949 11.3848H57.9714C59.842 11.3873 61.6353 12.1316 62.958 13.4543C64.2808 14.777 65.025 16.5703 65.0276 18.4409V57.973C65.025 59.8419 64.2821 61.6338 62.9615 62.9562C61.6408 64.2787 59.85 65.024 57.9811 65.0292Z" fill="#7096EF"/>
<path d="M55.4659 60.1764H10.5277C9.2791 60.1713 8.08327 59.6723 7.2013 58.7885C6.31933 57.9048 5.82287 56.7079 5.82031 55.4593V20.5181C5.829 19.442 6.24093 18.4082 6.97474 17.621C7.70855 16.8338 8.71089 16.3504 9.78377 16.2663C10.8567 16.1822 11.9221 16.5035 12.7696 17.1667C13.6172 17.8299 14.1852 18.7868 14.3615 19.8484C15.0586 24.2913 17.3198 28.3391 20.7374 31.2622C24.1551 34.1854 28.5044 35.7917 33.0016 35.7917C37.4989 35.7917 41.8482 34.1854 45.2659 31.2622C48.6835 28.3391 50.9446 24.2913 51.6418 19.8484C51.8045 18.774 52.368 17.8009 53.219 17.1251C54.07 16.4492 55.1453 16.1207 56.2288 16.2055C57.3122 16.2904 58.3233 16.7823 59.0587 17.5824C59.7941 18.3825 60.1992 19.4314 60.1927 20.5181V55.4593C60.1901 56.7113 59.691 57.911 58.8048 58.7954C57.9186 59.6797 56.7178 60.1764 55.4659 60.1764ZM10.1103 18.1887C9.48647 18.1913 8.88906 18.4409 8.44885 18.8829C8.00864 19.325 7.76148 19.9234 7.76149 20.5473V55.4884C7.76914 56.2179 8.06364 56.9151 8.5813 57.4291C9.09896 57.9431 9.79816 58.2327 10.5277 58.2352H55.4659C56.2004 58.2326 56.904 57.939 57.4225 57.4187C57.941 56.8984 58.2321 56.1939 58.2321 55.4593V20.5181C58.2185 19.9317 57.9878 19.3712 57.5847 18.9452C57.1815 18.5191 56.6346 18.2579 56.0498 18.2119C55.4651 18.166 54.8841 18.3388 54.4194 18.6967C53.9547 19.0546 53.6393 19.5722 53.5344 20.1493C52.758 25.0418 50.2617 29.4968 46.4944 32.7133C42.7271 35.9299 37.9359 37.6971 32.9822 37.6971C28.0285 37.6971 23.2373 35.9299 19.47 32.7133C15.7027 29.4968 13.2065 25.0418 12.43 20.1493C12.3381 19.6008 12.0545 19.1027 11.6297 18.7436C11.2049 18.3846 10.6665 18.188 10.1103 18.1887Z" fill="#7096EF"/>
<path d="M32.9974 32.9031C29.8396 32.9031 26.7527 31.9667 24.1271 30.2123C21.5015 28.4579 19.4551 25.9643 18.2466 23.0469C17.0382 20.1294 16.722 16.9192 17.338 13.822C17.9541 10.7249 19.4747 7.88 21.7076 5.64709C23.9406 3.41418 26.7855 1.89355 29.8826 1.2775C32.9797 0.661437 36.19 0.977621 39.1074 2.18606C42.0249 3.39451 44.5184 5.44093 46.2728 8.06655C48.0272 10.6922 48.9636 13.7791 48.9636 16.9369C48.9585 21.1698 47.2747 25.2279 44.2816 28.221C41.2884 31.2141 37.2304 32.8979 32.9974 32.9031ZM32.9974 2.91189C30.2236 2.91189 27.512 3.73444 25.2056 5.27553C22.8992 6.81661 21.1015 9.00702 20.04 11.5698C18.9785 14.1325 18.7008 16.9524 19.2419 19.673C19.7831 22.3936 21.1188 24.8926 23.0803 26.8541C25.0417 28.8155 27.5407 30.1512 30.2613 30.6924C32.9819 31.2336 35.8018 30.9558 38.3646 29.8943C40.9273 28.8328 43.1177 27.0352 44.6588 24.7288C46.1999 22.4224 47.0224 19.7108 47.0224 16.9369C47.0199 13.218 45.5414 9.65219 42.9118 7.02255C40.2821 4.39291 36.7163 2.91446 32.9974 2.91189Z" fill="#7096EF"/>
<path d="M33.0018 8.73543C32.7444 8.73543 32.4975 8.63317 32.3155 8.45115C32.1335 8.26913 32.0312 8.02226 32.0312 7.76484V5.43543C32.0312 5.17802 32.1335 4.93114 32.3155 4.74912C32.4975 4.5671 32.7444 4.46484 33.0018 4.46484C33.2593 4.46484 33.5061 4.5671 33.6881 4.74912C33.8702 4.93114 33.9724 5.17802 33.9724 5.43543V7.76484C33.9724 8.02226 33.8702 8.26913 33.6881 8.45115C33.5061 8.63317 33.2593 8.73543 33.0018 8.73543Z" fill="#7096EF"/>
<path d="M28.4291 9.9971C28.2597 9.99608 28.0935 9.95075 27.9471 9.86561C27.8006 9.78048 27.679 9.6585 27.5944 9.51181L26.4102 7.45416C26.2829 7.23247 26.2481 6.96948 26.3136 6.72233C26.379 6.47517 26.5393 6.26381 26.7596 6.13416C26.8698 6.06959 26.9917 6.0274 27.1182 6.01001C27.2448 5.99262 27.3735 6.00038 27.497 6.03285C27.6206 6.06531 27.7365 6.12183 27.8381 6.19917C27.9398 6.27652 28.0251 6.37317 28.0894 6.48357L29.2735 8.54122C29.3376 8.652 29.3793 8.77438 29.3959 8.90131C29.4126 9.02824 29.404 9.15722 29.3706 9.28081C29.3373 9.40441 29.2798 9.52018 29.2015 9.62146C29.1231 9.72274 29.0256 9.80752 28.9144 9.87093C28.7664 9.95477 28.5991 9.99828 28.4291 9.9971Z" fill="#7096EF"/>
<path d="M25.0889 13.3361C24.9188 13.3372 24.7515 13.2937 24.6036 13.2099L22.5459 12.0258C22.4329 11.9616 22.3339 11.8753 22.2549 11.7721C22.1758 11.669 22.1183 11.551 22.0857 11.4251C22.0531 11.2993 22.0461 11.1682 22.0652 11.0396C22.0842 10.9111 22.1289 10.7876 22.1965 10.6766C22.3262 10.4563 22.5375 10.296 22.7847 10.2306C23.0318 10.1651 23.2948 10.1999 23.5165 10.3272L25.5742 11.5113C25.7962 11.6394 25.9585 11.85 26.0258 12.0973C26.0931 12.3446 26.0598 12.6085 25.9333 12.8313C25.8503 12.9831 25.7282 13.1099 25.5797 13.1986C25.4313 13.2873 25.2618 13.3348 25.0889 13.3361Z" fill="#7096EF"/>
<path d="M23.8701 17.9075H21.5018C21.2444 17.9075 20.9976 17.8052 20.8155 17.6232C20.6335 17.4412 20.5312 17.1943 20.5312 16.9369C20.5312 16.6795 20.6335 16.4326 20.8155 16.2506C20.9976 16.0686 21.2444 15.9663 21.5018 15.9663H23.8701C24.1275 15.9663 24.3744 16.0686 24.5564 16.2506C24.7384 16.4326 24.8407 16.6795 24.8407 16.9369C24.8407 17.1943 24.7384 17.4412 24.5564 17.6232C24.3744 17.8052 24.1275 17.9075 23.8701 17.9075Z" fill="#7096EF"/>
<path d="M23.031 23.6534C22.8192 23.6512 22.6139 23.5798 22.4464 23.4501C22.279 23.3203 22.1586 23.1394 22.1036 22.9348C22.0486 22.7302 22.062 22.5133 22.1419 22.3171C22.2217 22.1209 22.3635 21.9561 22.5457 21.8481L24.6033 20.6639C24.7135 20.5994 24.8354 20.5572 24.9619 20.5398C25.0885 20.5224 25.2172 20.5302 25.3407 20.5626C25.4643 20.5951 25.5802 20.6516 25.6818 20.729C25.7835 20.8063 25.8688 20.903 25.9331 21.0134C26.0566 21.2353 26.0881 21.4968 26.021 21.7418C25.9538 21.9868 25.7933 22.1957 25.5739 22.3237L23.5163 23.5078C23.3703 23.5984 23.2028 23.6487 23.031 23.6534Z" fill="#7096EF"/>
<path d="M42.9552 23.6534C42.7852 23.6546 42.6179 23.6111 42.4699 23.5273L40.4123 22.3237C40.3019 22.2595 40.2052 22.1741 40.1279 22.0725C40.0505 21.9708 39.994 21.8549 39.9616 21.7314C39.9291 21.6079 39.9213 21.4792 39.9387 21.3526C39.9561 21.2261 39.9983 21.1042 40.0629 20.994C40.1925 20.7737 40.4039 20.6134 40.651 20.5479C40.8982 20.4825 41.1612 20.5173 41.3829 20.6446L43.4405 21.8287C43.6625 21.9568 43.8249 22.1674 43.8922 22.4147C43.9594 22.662 43.9262 22.9259 43.7996 23.1487C43.7166 23.3005 43.5946 23.4273 43.4461 23.516C43.2977 23.6047 43.1282 23.6522 42.9552 23.6534Z" fill="#7096EF"/>
<path d="M44.5048 17.9075H42.1268C41.8694 17.9075 41.6225 17.8052 41.4405 17.6232C41.2585 17.4412 41.1562 17.1943 41.1562 16.9369C41.1562 16.6795 41.2585 16.4326 41.4405 16.2506C41.6225 16.0686 41.8694 15.9663 42.1268 15.9663H44.5048C44.7622 15.9663 45.0091 16.0686 45.1911 16.2506C45.3731 16.4326 45.4754 16.6795 45.4754 16.9369C45.4754 17.1943 45.3731 17.4412 45.1911 17.6232C45.0091 17.8052 44.7622 17.9075 44.5048 17.9075Z" fill="#7096EF"/>
<path d="M40.8982 13.336C40.6864 13.3338 40.4811 13.2624 40.3136 13.1327C40.1462 13.0029 40.0258 12.822 39.9708 12.6174C39.9158 12.4128 39.9292 12.1959 40.0091 11.9997C40.0889 11.8035 40.2307 11.6388 40.4129 11.5307L42.4705 10.3466C42.5807 10.282 42.7026 10.2398 42.8291 10.2224C42.9557 10.205 43.0844 10.2128 43.2079 10.2452C43.3315 10.2777 43.4474 10.3342 43.549 10.4116C43.6506 10.4889 43.736 10.5856 43.8002 10.696C43.8644 10.8068 43.906 10.9291 43.9227 11.0561C43.9394 11.183 43.9308 11.312 43.8974 11.4356C43.864 11.5592 43.8065 11.6749 43.7282 11.7762C43.6499 11.8775 43.5523 11.9623 43.4411 12.0257L41.3835 13.2098C41.2356 13.2936 41.0682 13.3372 40.8982 13.336Z" fill="#7096EF"/>
<path d="M37.5604 9.99711C37.3897 9.99779 37.2218 9.95344 37.0737 9.86853C36.9257 9.78362 36.8026 9.66116 36.7169 9.5135C36.6313 9.36583 36.5861 9.19819 36.5859 9.02749C36.5858 8.85679 36.6306 8.68906 36.716 8.54123L37.9098 6.48359C38.0441 6.27232 38.2548 6.12112 38.498 6.06156C38.7411 6.002 38.9979 6.0387 39.2146 6.16398C39.4314 6.28926 39.5913 6.49343 39.661 6.73386C39.7308 6.97428 39.705 7.23235 39.5889 7.45417L38.4048 9.51182C38.3193 9.65994 38.1962 9.78283 38.0479 9.86805C37.8996 9.95327 37.7314 9.99779 37.5604 9.99711Z" fill="#7096EF"/>
<path d="M32.9968 19.6835C32.4535 19.6835 31.9224 19.5224 31.4707 19.2206C31.019 18.9187 30.667 18.4898 30.4591 17.9878C30.2512 17.4859 30.1968 16.9337 30.3028 16.4008C30.4088 15.868 30.6704 15.3786 31.0545 14.9945C31.4387 14.6103 31.9281 14.3487 32.4609 14.2427C32.9937 14.1367 33.546 14.1911 34.0479 14.399C34.5498 14.6069 34.9788 14.959 35.2806 15.4107C35.5824 15.8624 35.7435 16.3934 35.7435 16.9367C35.7435 17.6652 35.4541 18.3638 34.939 18.879C34.4239 19.3941 33.7253 19.6835 32.9968 19.6835ZM32.9968 16.1311C32.7831 16.1311 32.5782 16.216 32.4271 16.3671C32.2761 16.5181 32.1912 16.7231 32.1912 16.9367C32.1912 17.1504 32.2761 17.3553 32.4271 17.5063C32.5782 17.6574 32.7831 17.7423 32.9968 17.7423C33.2104 17.7423 33.4153 17.6574 33.5664 17.5063C33.7175 17.3553 33.8024 17.1504 33.8024 16.9367C33.8024 16.7231 33.7175 16.5181 33.5664 16.3671C33.4153 16.216 33.2104 16.1311 32.9968 16.1311Z" fill="#7096EF"/>
<path d="M34.2556 16.6458C34.0648 16.645 33.8785 16.588 33.7199 16.4819C33.5614 16.3758 33.4376 16.2253 33.364 16.0493C33.2905 15.8732 33.2705 15.6794 33.3065 15.492C33.3425 15.3046 33.433 15.132 33.5665 14.9958L36.7889 11.7734C36.8791 11.6825 36.9864 11.6102 37.1047 11.561C37.223 11.5117 37.3499 11.4863 37.478 11.4863C37.6061 11.4863 37.733 11.5117 37.8513 11.561C37.9695 11.6102 38.0769 11.6825 38.1671 11.7734C38.3479 11.9553 38.4493 12.2013 38.4493 12.4577C38.4493 12.7141 38.3479 12.9601 38.1671 13.142L34.9448 16.3643C34.8541 16.4543 34.7465 16.5254 34.6283 16.5737C34.51 16.622 34.3834 16.6465 34.2556 16.6458Z" fill="#7096EF"/>
</g>
<defs>
<clipPath id="clip0_7854_297">
<rect width="66" height="66" fill="white"/>
</clipPath>
</defs>
</svg>
