<svg width="70" height="70" viewBox="0 0 70 70" fill="none" xmlns="http://www.w3.org/2000/svg">
<path d="M32.4469 35.0984L35.6297 18.9109C35.711 18.5176 35.7135 18.112 35.6371 17.7177C35.5608 17.3234 35.4071 16.9481 35.1849 16.6135C34.9627 16.2789 34.6764 15.9917 34.3425 15.7684C34.0087 15.5451 33.6339 15.3901 33.2398 15.3125L14.1266 11.5445C13.3355 11.3883 12.5148 11.5522 11.8444 12.0002C11.1739 12.4482 10.7085 13.1437 10.55 13.9343L3.36407 50.1703C3.28532 50.5625 3.28489 50.9664 3.3628 51.3588C3.4407 51.7511 3.5954 52.1243 3.81801 52.4566C4.04061 52.789 4.32672 53.0741 4.6599 53.2955C4.99307 53.517 5.36672 53.6703 5.75938 53.7468L17.5938 56.0984C17.4953 58.7781 19.2344 60.5281 19.9125 61.5671C19.979 61.8459 19.9876 62.1353 19.9377 62.4175C19.8879 62.6997 19.7806 62.9687 19.6227 63.2078C19.5 63.4105 19.4465 63.6475 19.4702 63.8832C19.4939 64.1189 19.5934 64.3405 19.7539 64.5148C19.8578 64.6296 21.8539 66.7023 26.1633 66.7023C31.8453 66.7023 35.6898 63.3335 36.2531 61.075C36.311 60.835 36.2859 60.5825 36.182 60.3586C35.7353 59.0787 35.5331 57.7263 35.5859 56.3718C35.5859 54.2882 36.7672 45.057 36.9422 43.7336C37.1474 42.2909 36.8145 40.8231 36.007 39.6101C35.2688 38.325 35.1102 38.0187 32.4469 35.0984ZM19.8359 15.925L20.0328 14.946L26.4859 16.2257L26.2891 17.2046C26.2286 17.4858 26.0598 17.7318 25.8193 17.8894C25.5788 18.047 25.2858 18.1036 25.0039 18.0468L20.6945 17.1882C20.4149 17.1313 20.1686 16.9673 20.0082 16.7313C19.8478 16.4953 19.786 16.2059 19.8359 15.925ZM17.9492 53.9382C6.46485 51.5757 5.26172 51.8656 5.50782 50.5968L12.6992 14.3609C12.7182 14.2492 12.7595 14.1425 12.8204 14.0471C12.8814 13.9516 12.9608 13.8693 13.0541 13.8051C13.1474 13.7408 13.2526 13.6959 13.3636 13.6731C13.4745 13.6502 13.5889 13.6498 13.7 13.6718L17.8836 14.5031L17.6922 15.482C17.6077 15.9046 17.6073 16.3398 17.6911 16.7626C17.7748 17.1854 17.941 17.5875 18.1802 17.9461C18.4194 18.3046 18.7269 18.6125 19.0851 18.8522C19.4434 19.0919 19.8453 19.2586 20.268 19.3429L24.5773 20.2343C25.0019 20.3185 25.4389 20.3178 25.8632 20.2323C26.2875 20.1469 26.6907 19.9783 27.0496 19.7363C27.4085 19.4944 27.7159 19.1838 27.9543 18.8225C28.1926 18.4612 28.3571 18.0563 28.4383 17.6312L28.6297 16.6523L32.8133 17.5C33.0356 17.5449 33.2311 17.6759 33.3571 17.8644C33.4831 18.0529 33.5294 18.2836 33.4859 18.5062L28.0172 46.3968C27.6516 46.7951 27.2627 47.1713 26.8523 47.5234C25.4523 46.1781 24.1508 41.825 22.357 39.8671C20.2953 37.6796 16.6313 36.4765 14.8156 38.7406C13.4922 40.3812 14.3563 41.8632 15.3625 43.5585C17.4406 47.1132 18.6328 49.8695 17.9492 53.9382ZM34.7766 43.4601C34.7766 43.5585 33.393 53.9273 33.3984 56.3937C33.3669 57.892 33.5755 59.3856 34.0164 60.8179C32.1789 64.3234 25.3539 65.6742 21.9141 63.4539C22.2425 62.5607 22.2425 61.5798 21.9141 60.6867C21.5531 59.7789 19.2672 58.0398 19.8633 55.4585C21.0555 50.2742 19.8633 46.9 17.2164 42.4539C16.1938 40.7312 16.1719 40.5179 16.5 40.1132C17.3422 39.0632 19.6609 40.2117 20.7273 41.3601C22.368 43.1101 23.5766 47.7312 25.5891 49.3335C27.9133 51.1929 29.9313 51.2148 30.1664 51.2148C30.4565 51.2148 30.7347 51.0996 30.9398 50.8944C31.1449 50.6893 31.2602 50.4111 31.2602 50.121C31.2602 49.831 31.1449 49.5528 30.9398 49.3476C30.7347 49.1425 30.4565 49.0273 30.1664 49.0273C29.6899 48.9975 29.222 48.8865 28.7828 48.6992C29.8117 47.807 30.6584 46.7244 31.2766 45.5109C31.3415 45.3824 31.3803 45.2423 31.391 45.0988C31.4017 44.9552 31.3839 44.811 31.3386 44.6743C31.2934 44.5376 31.2217 44.4112 31.1275 44.3023C31.0333 44.1935 30.9186 44.1042 30.7898 44.0398L30.7023 44.007L31.9273 37.7781C33.6391 39.714 33.6992 39.9656 34.1148 40.7093C34.676 41.5093 34.9126 42.4925 34.7766 43.4601Z" fill="#7096EF"/>
<path d="M42.1094 39.9219H39.9219C39.6318 39.9219 39.3536 40.0371 39.1485 40.2422C38.9434 40.4473 38.8281 40.7255 38.8281 41.0156C38.8281 41.3057 38.9434 41.5839 39.1485 41.789C39.3536 41.9941 39.6318 42.1094 39.9219 42.1094H42.1094C42.3995 42.1094 42.6777 41.9941 42.8828 41.789C43.0879 41.5839 43.2031 41.3057 43.2031 41.0156C43.2031 40.7255 43.0879 40.4473 42.8828 40.2422C42.6777 40.0371 42.3995 39.9219 42.1094 39.9219Z" fill="#7096EF"/>
<path d="M42.1094 44.2969H39.9219C39.6318 44.2969 39.3536 44.4121 39.1485 44.6172C38.9434 44.8223 38.8281 45.1005 38.8281 45.3906C38.8281 45.6807 38.9434 45.9589 39.1485 46.164C39.3536 46.3691 39.6318 46.4844 39.9219 46.4844H42.1094C42.3995 46.4844 42.6777 46.3691 42.8828 46.164C43.0879 45.9589 43.2031 45.6807 43.2031 45.3906C43.2031 45.1005 43.0879 44.8223 42.8828 44.6172C42.6777 44.4121 42.3995 44.2969 42.1094 44.2969Z" fill="#7096EF"/>
<path d="M60.3312 6.5625H35.9188C35.0954 6.56395 34.3061 6.89167 33.7239 7.4739C33.1417 8.05612 32.8139 8.84537 32.8125 9.66875V12.0641C32.8125 12.3541 32.9277 12.6323 33.1329 12.8375C33.338 13.0426 33.6162 13.1578 33.9062 13.1578C34.1963 13.1578 34.4745 13.0426 34.6796 12.8375C34.8848 12.6323 35 12.3541 35 12.0641V9.66875C35 9.42508 35.0968 9.19139 35.2691 9.0191C35.4414 8.8468 35.6751 8.75 35.9188 8.75H60.3312C60.5749 8.75 60.8086 8.8468 60.9809 9.0191C61.1532 9.19139 61.25 9.42508 61.25 9.66875V52.1281C61.25 52.2488 61.2262 52.3682 61.1801 52.4797C61.1339 52.5912 61.0662 52.6925 60.9809 52.7778C60.8956 52.8631 60.7943 52.9308 60.6828 52.9769C60.5714 53.0231 60.4519 53.0469 60.3312 53.0469H39.2C38.9099 53.0469 38.6317 53.1621 38.4266 53.3672C38.2215 53.5723 38.1063 53.8505 38.1063 54.1406C38.1063 54.4307 38.2215 54.7089 38.4266 54.914C38.6317 55.1191 38.9099 55.2344 39.2 55.2344H60.3312C61.1546 55.2329 61.9439 54.9052 62.5261 54.323C63.1083 53.7408 63.4361 52.9515 63.4375 52.1281V9.66875C63.4361 8.84537 63.1083 8.05612 62.5261 7.4739C61.9439 6.89167 61.1546 6.56395 60.3312 6.5625Z" fill="#7096EF"/>
<path d="M58.5156 12.5781C58.5156 12.288 58.4004 12.0098 58.1953 11.8047C57.9902 11.5996 57.712 11.4844 57.4219 11.4844H38.8281C38.538 11.4844 38.2598 11.5996 38.0547 11.8047C37.8496 12.0098 37.7344 12.288 37.7344 12.5781V27.8906C37.7344 28.1807 37.8496 28.4589 38.0547 28.664C38.2598 28.8691 38.538 28.9844 38.8281 28.9844H57.4219C57.712 28.9844 57.9902 28.8691 58.1953 28.664C58.4004 28.4589 58.5156 28.1807 58.5156 27.8906V12.5781ZM56.3281 26.7969H39.9219V13.6719H56.3281V26.7969Z" fill="#7096EF"/>
<path d="M57.4219 35.5469H54.1406C53.8505 35.5469 53.5723 35.6621 53.3672 35.8672C53.1621 36.0723 53.0469 36.3505 53.0469 36.6406C53.0469 36.9307 53.1621 37.2089 53.3672 37.414C53.5723 37.6191 53.8505 37.7344 54.1406 37.7344H57.4219C57.712 37.7344 57.9902 37.6191 58.1953 37.414C58.4004 37.2089 58.5156 36.9307 58.5156 36.6406C58.5156 36.3505 58.4004 36.0723 58.1953 35.8672C57.9902 35.6621 57.712 35.5469 57.4219 35.5469Z" fill="#7096EF"/>
<path d="M49.7656 35.5469H46.4844C46.1943 35.5469 45.9161 35.6621 45.711 35.8672C45.5059 36.0723 45.3906 36.3505 45.3906 36.6406C45.3906 36.9307 45.5059 37.2089 45.711 37.414C45.9161 37.6191 46.1943 37.7344 46.4844 37.7344H49.7656C50.0557 37.7344 50.3339 37.6191 50.539 37.414C50.7441 37.2089 50.8594 36.9307 50.8594 36.6406C50.8594 36.3505 50.7441 36.0723 50.539 35.8672C50.3339 35.6621 50.0557 35.5469 49.7656 35.5469Z" fill="#7096EF"/>
<path d="M57.4219 39.9219H54.1406C53.8505 39.9219 53.5723 40.0371 53.3672 40.2422C53.1621 40.4473 53.0469 40.7255 53.0469 41.0156C53.0469 41.3057 53.1621 41.5839 53.3672 41.789C53.5723 41.9941 53.8505 42.1094 54.1406 42.1094H57.4219C57.712 42.1094 57.9902 41.9941 58.1953 41.789C58.4004 41.5839 58.5156 41.3057 58.5156 41.0156C58.5156 40.7255 58.4004 40.4473 58.1953 40.2422C57.9902 40.0371 57.712 39.9219 57.4219 39.9219Z" fill="#7096EF"/>
<path d="M49.7656 39.9219H46.4844C46.1943 39.9219 45.9161 40.0371 45.711 40.2422C45.5059 40.4473 45.3906 40.7255 45.3906 41.0156C45.3906 41.3057 45.5059 41.5839 45.711 41.789C45.9161 41.9941 46.1943 42.1094 46.4844 42.1094H49.7656C50.0557 42.1094 50.3339 41.9941 50.539 41.789C50.7441 41.5839 50.8594 41.3057 50.8594 41.0156C50.8594 40.7255 50.7441 40.4473 50.539 40.2422C50.3339 40.0371 50.0557 39.9219 49.7656 39.9219Z" fill="#7096EF"/>
<path d="M57.4219 44.2969H54.1406C53.8505 44.2969 53.5723 44.4121 53.3672 44.6172C53.1621 44.8223 53.0469 45.1005 53.0469 45.3906C53.0469 45.6807 53.1621 45.9589 53.3672 46.164C53.5723 46.3691 53.8505 46.4844 54.1406 46.4844H57.4219C57.712 46.4844 57.9902 46.3691 58.1953 46.164C58.4004 45.9589 58.5156 45.6807 58.5156 45.3906C58.5156 45.1005 58.4004 44.8223 58.1953 44.6172C57.9902 44.4121 57.712 44.2969 57.4219 44.2969Z" fill="#7096EF"/>
<path d="M49.7656 44.2969H46.4844C46.1943 44.2969 45.9161 44.4121 45.711 44.6172C45.5059 44.8223 45.3906 45.1005 45.3906 45.3906C45.3906 45.6807 45.5059 45.9589 45.711 46.164C45.9161 46.3691 46.1943 46.4844 46.4844 46.4844H49.7656C50.0557 46.4844 50.3339 46.3691 50.539 46.164C50.7441 45.9589 50.8594 45.6807 50.8594 45.3906C50.8594 45.1005 50.7441 44.8223 50.539 44.6172C50.3339 44.4121 50.0557 44.2969 49.7656 44.2969Z" fill="#7096EF"/>
<path d="M49.7656 48.6719H46.4844C46.1943 48.6719 45.9161 48.7871 45.711 48.9922C45.5059 49.1973 45.3906 49.4755 45.3906 49.7656C45.3906 50.0557 45.5059 50.3339 45.711 50.539C45.9161 50.7441 46.1943 50.8594 46.4844 50.8594H49.7656C50.0557 50.8594 50.3339 50.7441 50.539 50.539C50.7441 50.3339 50.8594 50.0557 50.8594 49.7656C50.8594 49.4755 50.7441 49.1973 50.539 48.9922C50.3339 48.7871 50.0557 48.6719 49.7656 48.6719Z" fill="#7096EF"/>
<path d="M57.4219 31.1719H54.1406C53.8505 31.1719 53.5723 31.2871 53.3672 31.4922C53.1621 31.6973 53.0469 31.9755 53.0469 32.2656C53.0469 32.5557 53.1621 32.8339 53.3672 33.039C53.5723 33.2441 53.8505 33.3594 54.1406 33.3594H57.4219C57.712 33.3594 57.9902 33.2441 58.1953 33.039C58.4004 32.8339 58.5156 32.5557 58.5156 32.2656C58.5156 31.9755 58.4004 31.6973 58.1953 31.4922C57.9902 31.2871 57.712 31.1719 57.4219 31.1719Z" fill="#7096EF"/>
<path d="M49.7656 31.1719H46.4844C46.1943 31.1719 45.9161 31.2871 45.711 31.4922C45.5059 31.6973 45.3906 31.9755 45.3906 32.2656C45.3906 32.5557 45.5059 32.8339 45.711 33.039C45.9161 33.2441 46.1943 33.3594 46.4844 33.3594H49.7656C50.0557 33.3594 50.3339 33.2441 50.539 33.039C50.7441 32.8339 50.8594 32.5557 50.8594 32.2656C50.8594 31.9755 50.7441 31.6973 50.539 31.4922C50.3339 31.2871 50.0557 31.1719 49.7656 31.1719Z" fill="#7096EF"/>
<path d="M38.8281 33.3594H42.1094C42.3995 33.3594 42.6777 33.2441 42.8828 33.039C43.0879 32.8339 43.2031 32.5557 43.2031 32.2656C43.2031 31.9755 43.0879 31.6973 42.8828 31.4922C42.6777 31.2871 42.3995 31.1719 42.1094 31.1719H38.8281C38.538 31.1719 38.2598 31.2871 38.0547 31.4922C37.8496 31.6973 37.7344 31.9755 37.7344 32.2656C37.7344 32.5557 37.8496 32.8339 38.0547 33.039C38.2598 33.2441 38.538 33.3594 38.8281 33.3594Z" fill="#7096EF"/>
<path d="M42.1094 37.7344C42.3995 37.7344 42.6777 37.6191 42.8828 37.414C43.0879 37.2089 43.2031 36.9307 43.2031 36.6406C43.2031 36.3505 43.0879 36.0723 42.8828 35.8672C42.6777 35.6621 42.3995 35.5469 42.1094 35.5469H38.8281C38.538 35.5469 38.2598 35.6621 38.0547 35.8672C37.8496 36.0723 37.7344 36.3505 37.7344 36.6406C37.7344 36.9307 37.8496 37.2089 38.0547 37.414C38.2598 37.6191 38.538 37.7344 38.8281 37.7344H42.1094Z" fill="#7096EF"/>
<path d="M46.242 23.74C46.3436 23.8417 46.4642 23.9223 46.597 23.9774C46.7298 24.0324 46.8721 24.0608 47.0158 24.0608C47.1596 24.0608 47.3019 24.0324 47.4347 23.9774C47.5675 23.9223 47.6881 23.8417 47.7897 23.74L53.2584 18.2712C53.4629 18.0653 53.5773 17.7865 53.5762 17.4963C53.5752 17.206 53.4589 16.9281 53.253 16.7236C53.047 16.5191 52.7682 16.4047 52.478 16.4058C52.1878 16.4068 51.9098 16.5231 51.7053 16.729L47.035 21.4212L44.5741 18.9658C44.4728 18.8638 44.3524 18.7827 44.2199 18.7273C44.0873 18.6718 43.9451 18.643 43.8014 18.6425C43.6576 18.642 43.5152 18.6698 43.3823 18.7243C43.2493 18.7788 43.1284 18.859 43.0264 18.9603C42.9244 19.0615 42.8434 19.1819 42.7879 19.3145C42.7324 19.4471 42.7036 19.5893 42.7031 19.733C42.7026 19.8767 42.7304 20.0191 42.785 20.1521C42.8395 20.285 42.9197 20.406 43.0209 20.5079L46.242 23.74Z" fill="#7096EF"/>
<path d="M20.0051 32.5499C18.5978 32.2546 17.1319 32.4475 15.8488 33.0968C15.7196 33.16 15.604 33.248 15.5088 33.3559C15.4135 33.4637 15.3405 33.5893 15.2937 33.7254C15.247 33.8615 15.2276 34.0054 15.2365 34.1491C15.2454 34.2927 15.2825 34.4331 15.3457 34.5624C15.4089 34.6917 15.497 34.8072 15.6048 34.9025C15.7127 34.9977 15.8382 35.0708 15.9743 35.1175C16.1104 35.1642 16.2544 35.1837 16.398 35.1747C16.5416 35.1658 16.6821 35.1287 16.8113 35.0655C17.6519 34.6307 18.6176 34.502 19.5426 34.7016C20.4677 34.9012 21.2944 35.4166 21.8809 36.1593C22.0655 36.3819 22.3309 36.5224 22.6188 36.5499C22.9068 36.5774 23.1939 36.4897 23.4173 36.306C23.6408 36.1223 23.7824 35.8576 23.8111 35.5698C23.8399 35.2819 23.7534 34.9944 23.5707 34.7702C22.6712 33.644 21.4126 32.8603 20.0051 32.5499Z" fill="#7096EF"/>
<path d="M16.0318 30.8055C17.4388 30.2263 18.9889 30.0893 20.4758 30.4126C21.9626 30.736 23.3158 31.5044 24.3552 32.6156C24.4547 32.7194 24.5736 32.8026 24.7052 32.8604C24.8368 32.9182 24.9785 32.9495 25.1222 32.9526C25.266 32.9556 25.4089 32.9303 25.5428 32.8782C25.6767 32.826 25.7991 32.7479 25.9029 32.6485C26.0066 32.549 26.0898 32.4301 26.1476 32.2984C26.2054 32.1668 26.2368 32.0251 26.2398 31.8814C26.2429 31.7377 26.2176 31.5948 26.1654 31.4609C26.1132 31.3269 26.0351 31.2046 25.9357 31.1008C24.5942 29.674 22.8514 28.6879 20.9375 28.2729C19.0236 27.8579 17.0289 28.0336 15.2169 28.7766C14.9567 28.8907 14.7512 29.1016 14.6437 29.3646C14.5363 29.6277 14.5354 29.9222 14.6413 30.1858C14.7472 30.4495 14.9515 30.6616 15.211 30.7773C15.4706 30.8929 15.7649 30.903 16.0318 30.8055Z" fill="#7096EF"/>
</svg>
