<svg width="66" height="66" viewBox="0 0 66 66" fill="none" xmlns="http://www.w3.org/2000/svg">
<path d="M20.621 2.06348C18.9249 2.06348 17.5312 3.45912 17.5312 5.15525C17.5001 6.56109 19.625 6.56109 19.5937 5.15525C19.5937 4.56609 20.0318 4.12803 20.621 4.12803H47.4335C48.0226 4.12803 48.4687 4.56609 48.4687 5.15525V21.6592C48.4376 23.0651 50.5625 23.0651 50.5312 21.6592V5.15525C50.5312 3.45912 49.1296 2.06348 47.4335 2.06348H20.621ZM14.4315 8.24489C12.7353 8.24489 11.3417 9.64865 11.3417 11.3447V21.6592C11.3105 23.0651 13.4354 23.0651 13.4042 21.6592V11.3447C13.4042 10.7556 13.8423 10.3074 14.4315 10.3074H41.252C41.8412 10.3074 42.2792 10.7556 42.2792 11.3447V21.6592C42.2481 23.0651 44.3729 23.0651 44.3417 21.6592V11.3447C44.3417 9.64865 42.9481 8.24489 41.252 8.24489H14.4315ZM22.6815 12.3759C22.1064 12.3759 21.6234 12.7983 21.6462 13.5724C21.5576 16.3282 19.3334 18.5164 16.5282 18.5574C15.8909 18.5574 15.4647 19.0502 15.4647 19.5404V21.6553C15.4647 23.0306 17.5272 23.0306 17.5272 21.6553V20.5535C20.6742 20.0972 23.1811 17.5872 23.6382 14.4405H32.0332C32.4906 17.5892 35.0003 20.0976 38.1502 20.5514V21.6632C38.1802 23.008 40.1827 23.008 40.2127 21.6632V19.5927C40.2458 18.8947 39.6054 18.5454 38.9156 18.5454C36.1967 18.4102 34.0513 16.2013 34.0252 13.4536C34.0513 12.8668 33.5833 12.3766 32.996 12.3759H22.6815ZM53.621 14.4345C52.2151 14.4033 52.2151 16.5281 53.621 16.4969C54.2101 16.4969 54.6546 16.9435 54.6583 17.5403V24.7489H8.25202C5.94892 24.7489 4.125 22.9271 4.125 20.624C4.125 18.3209 5.94892 16.4969 8.25202 16.4969C9.65788 16.5281 9.65788 14.4033 8.25202 14.4345C4.84197 14.4345 2.0625 17.214 2.0625 20.624V57.751C2.0625 61.161 4.84198 63.9385 8.25202 63.9385H57.748C59.4441 63.9385 60.8377 62.5368 60.8377 60.8408V54.6511C60.8377 53.2758 58.7752 53.2758 58.7752 54.6511V60.8408C58.7752 61.4299 58.3371 61.8759 57.748 61.8759H8.25202C5.94893 61.8759 4.125 60.0541 4.125 57.751V25.2222C5.22169 26.2075 6.66681 26.8135 8.25202 26.8135H57.748C58.3371 26.8135 58.7752 27.2516 58.7752 27.8407V34.0282C58.7752 35.4036 60.8377 35.4036 60.8377 34.0282V27.8407C60.8377 26.1446 59.4441 24.7489 57.748 24.7489H56.7208V17.5282C56.7102 15.8358 55.3171 14.4345 53.621 14.4345ZM46.4062 37.1279C42.4249 37.1279 39.1895 40.3634 39.1895 44.3448C39.1895 48.3261 42.4249 51.5615 46.4062 51.5615H60.8377C62.5338 51.5615 63.9375 50.1658 63.9375 48.4697V40.2177C63.9375 38.5216 62.5338 37.1279 60.8377 37.1279H46.4062ZM46.4062 39.1824H60.8377C61.4269 39.1824 61.875 39.6285 61.875 40.2177V48.4697C61.875 49.0589 61.4269 49.4969 60.8377 49.4969H46.4062C43.5318 49.4969 41.252 47.2192 41.252 44.3448C41.252 41.4704 43.5319 39.1824 46.4062 39.1824ZM46.4062 41.2449C44.7101 41.2449 43.3065 42.6487 43.3065 44.3448C43.3065 46.0409 44.7101 47.4344 46.4062 47.4344C48.1023 47.4344 49.496 46.0409 49.496 44.3448C49.496 42.6487 48.1023 41.2449 46.4062 41.2449ZM46.4062 43.3095C46.9954 43.3095 47.4335 43.7556 47.4335 44.3448C47.4335 44.9339 46.9954 45.372 46.4062 45.372C45.8171 45.372 45.369 44.9339 45.369 44.3448C45.369 43.7556 45.8171 43.3095 46.4062 43.3095Z" fill="#7096EF"/>
</svg>
