<svg width="66" height="66" viewBox="0 0 66 66" fill="none" xmlns="http://www.w3.org/2000/svg">
<path d="M13.4063 48.4688C12.7944 48.4687 12.1962 48.6502 11.6875 48.9901C11.1787 49.3301 10.7822 49.8133 10.548 50.3786C10.3138 50.9439 10.2526 51.5659 10.3719 52.1661C10.4913 52.7662 10.786 53.3174 11.2186 53.7501C11.6513 54.1828 12.2026 54.4774 12.8027 54.5968C13.4028 54.7162 14.0249 54.6549 14.5902 54.4208C15.1555 54.1866 15.6387 53.7901 15.9786 53.2813C16.3186 52.7725 16.5 52.1744 16.5 51.5625C16.4991 50.7423 16.1728 49.9559 15.5928 49.3759C15.0129 48.7959 14.2265 48.4697 13.4063 48.4688ZM13.4063 52.5938C13.2023 52.5938 13.0029 52.5333 12.8333 52.42C12.6637 52.3066 12.5316 52.1456 12.4535 51.9571C12.3754 51.7687 12.355 51.5614 12.3948 51.3613C12.4346 51.1613 12.5328 50.9775 12.677 50.8333C12.8213 50.6891 13.005 50.5909 13.2051 50.5511C13.4051 50.5113 13.6125 50.5317 13.8009 50.6098C13.9893 50.6878 14.1504 50.82 14.2637 50.9896C14.377 51.1592 14.4375 51.3585 14.4375 51.5625C14.4372 51.8359 14.3284 52.098 14.1351 52.2914C13.9418 52.4847 13.6797 52.5934 13.4063 52.5938Z" fill="#7096EF"/>
<path d="M52.5938 48.4688C51.9819 48.4687 51.3837 48.6502 50.875 48.9901C50.3662 49.3301 49.9697 49.8133 49.7355 50.3786C49.5013 50.9439 49.4401 51.5659 49.5594 52.1661C49.6788 52.7662 49.9735 53.3174 50.4061 53.7501C50.8388 54.1828 51.3901 54.4774 51.9902 54.5968C52.5903 54.7162 53.2124 54.6549 53.7777 54.4208C54.343 54.1866 54.8262 53.7901 55.1661 53.2813C55.5061 52.7725 55.6875 52.1744 55.6875 51.5625C55.6866 50.7423 55.3603 49.9559 54.7803 49.3759C54.2004 48.7959 53.414 48.4697 52.5938 48.4688ZM52.5938 52.5938C52.3898 52.5938 52.1904 52.5333 52.0208 52.42C51.8512 52.3066 51.7191 52.1456 51.641 51.9571C51.5629 51.7687 51.5425 51.5614 51.5823 51.3613C51.6221 51.1613 51.7203 50.9775 51.8645 50.8333C52.0088 50.6891 52.1925 50.5909 52.3926 50.5511C52.5926 50.5113 52.8 50.5317 52.9884 50.6098C53.1768 50.6878 53.3379 50.82 53.4512 50.9896C53.5645 51.1592 53.625 51.3585 53.625 51.5625C53.6247 51.8359 53.5159 52.098 53.3226 52.2914C53.1293 52.4847 52.8672 52.5934 52.5938 52.5938Z" fill="#7096EF"/>
<path d="M64.805 34.5043L55.5238 20.0668C55.4303 19.9217 55.3019 19.8023 55.1504 19.7196C54.9988 19.637 54.8289 19.5937 54.6562 19.5938H42.2812V13.9219C42.2802 12.9649 41.8996 12.0475 41.2229 11.3708C40.5463 10.6942 39.6288 10.3136 38.6719 10.3125H4.64062C3.68368 10.3136 2.76624 10.6942 2.08958 11.3708C1.41292 12.0475 1.03231 12.9649 1.03125 13.9219V51.5625C1.03125 51.836 1.1399 52.0983 1.3333 52.2917C1.52669 52.4851 1.789 52.5938 2.0625 52.5938H6.26227C6.51016 54.3117 7.36881 55.8828 8.68087 57.0191C9.99293 58.1554 11.6705 58.7809 13.4062 58.7809C15.142 58.7809 16.8196 58.1554 18.1316 57.0191C19.4437 55.8828 20.3023 54.3117 20.5502 52.5938H45.4498C45.6977 54.3117 46.5563 55.8828 47.8684 57.0191C49.1804 58.1554 50.858 58.7809 52.5938 58.7809C54.3295 58.7809 56.0071 58.1554 57.3191 57.0191C58.6312 55.8828 59.4898 54.3117 59.7377 52.5938H63.9375C64.211 52.5938 64.4733 52.4851 64.6667 52.2917C64.8601 52.0983 64.9688 51.836 64.9688 51.5625V35.0625C64.9687 34.8646 64.9119 34.6709 64.805 34.5043ZM13.4062 56.7188C12.3864 56.7188 11.3895 56.4163 10.5416 55.8498C9.69365 55.2832 9.03276 54.4779 8.6425 53.5357C8.25223 52.5935 8.15012 51.5568 8.34908 50.5566C8.54803 49.5564 9.03912 48.6376 9.76023 47.9165C10.4813 47.1954 11.4001 46.7043 12.4003 46.5053C13.4005 46.3064 14.4373 46.4085 15.3795 46.7987C16.3216 47.189 17.1269 47.8499 17.6935 48.6978C18.2601 49.5458 18.5625 50.5427 18.5625 51.5625C18.5611 52.9296 18.0175 54.2403 17.0508 55.207C16.0841 56.1737 14.7734 56.7174 13.4062 56.7188ZM40.2188 50.5312H20.5502C20.3023 48.8133 19.4437 47.2422 18.1316 46.1059C16.8196 44.9696 15.142 44.3441 13.4062 44.3441C11.6705 44.3441 9.99293 44.9696 8.68087 46.1059C7.36881 47.2422 6.51016 48.8133 6.26227 50.5312H3.09375V40.2188H40.2188V50.5312ZM40.2188 38.1562H3.09375V13.9219C3.09409 13.5117 3.25717 13.1185 3.5472 12.8284C3.83722 12.5384 4.23047 12.3753 4.64062 12.375H38.6719C39.082 12.3753 39.4753 12.5384 39.7653 12.8284C40.0553 13.1185 40.2184 13.5117 40.2188 13.9219V38.1562ZM56.082 24.75L62.049 34.0312H47.4375V24.75H56.082ZM52.5938 56.7188C51.5739 56.7188 50.577 56.4163 49.7291 55.8498C48.8811 55.2832 48.2203 54.4779 47.83 53.5357C47.4397 52.5935 47.3376 51.5568 47.5366 50.5566C47.7355 49.5564 48.2266 48.6376 48.9477 47.9165C49.6688 47.1954 50.5876 46.7043 51.5878 46.5053C52.588 46.3064 53.6248 46.4085 54.567 46.7987C55.5091 47.189 56.3144 47.8499 56.881 48.6978C57.4476 49.5458 57.75 50.5427 57.75 51.5625C57.7486 52.9296 57.205 54.2403 56.2383 55.207C55.2716 56.1737 53.9609 56.7174 52.5938 56.7188ZM62.9062 42.2812H60.8438C60.5702 42.2812 60.3079 42.1726 60.1145 41.9792C59.9212 41.7858 59.8125 41.5235 59.8125 41.25C59.8125 40.9765 59.9212 40.7142 60.1145 40.5208C60.3079 40.3274 60.5702 40.2188 60.8438 40.2188H62.9062V42.2812ZM62.9062 38.1562H60.8438C60.0232 38.1562 59.2363 38.4822 58.6561 39.0624C58.076 39.6426 57.75 40.4295 57.75 41.25C57.75 42.0705 58.076 42.8574 58.6561 43.4376C59.2363 44.0178 60.0232 44.3438 60.8438 44.3438H62.9062V50.5312H59.7377C59.4898 48.8133 58.6312 47.2422 57.3191 46.1059C56.0071 44.9696 54.3295 44.3441 52.5938 44.3441C50.858 44.3441 49.1804 44.9696 47.8684 46.1059C46.5563 47.2422 45.6977 48.8133 45.4498 50.5312H42.2812V21.6562H54.0929L54.7568 22.6875H46.4062C46.1327 22.6875 45.8704 22.7961 45.677 22.9895C45.4837 23.1829 45.375 23.4452 45.375 23.7188V35.0625C45.375 35.336 45.4837 35.5983 45.677 35.7917C45.8704 35.9851 46.1327 36.0938 46.4062 36.0938H62.9062V38.1562Z" fill="#7096EF"/>
<path d="M49.5 38.1562H46.4062C46.1327 38.1562 45.8704 38.2649 45.677 38.4583C45.4836 38.6517 45.375 38.914 45.375 39.1875C45.375 39.461 45.4836 39.7233 45.677 39.9167C45.8704 40.1101 46.1327 40.2188 46.4062 40.2188H49.5C49.7735 40.2188 50.0358 40.1101 50.2292 39.9167C50.4226 39.7233 50.5312 39.461 50.5312 39.1875C50.5312 38.914 50.4226 38.6517 50.2292 38.4583C50.0358 38.2649 49.7735 38.1562 49.5 38.1562Z" fill="#7096EF"/>
<path d="M27.8438 44.3438H36.0938C36.3673 44.3438 36.6296 44.2351 36.823 44.0417C37.0164 43.8483 37.125 43.586 37.125 43.3125C37.125 43.039 37.0164 42.7767 36.823 42.5833C36.6296 42.3899 36.3673 42.2812 36.0938 42.2812H27.8438C27.5702 42.2812 27.3079 42.3899 27.1145 42.5833C26.9211 42.7767 26.8125 43.039 26.8125 43.3125C26.8125 43.586 26.9211 43.8483 27.1145 44.0417C27.3079 44.2351 27.5702 44.3438 27.8438 44.3438Z" fill="#7096EF"/>
<path d="M36.0938 45.375H33C32.7265 45.375 32.4642 45.4836 32.2708 45.677C32.0774 45.8704 31.9688 46.1327 31.9688 46.4062C31.9688 46.6798 32.0774 46.9421 32.2708 47.1355C32.4642 47.3289 32.7265 47.4375 33 47.4375H36.0938C36.3673 47.4375 36.6296 47.3289 36.823 47.1355C37.0164 46.9421 37.125 46.6798 37.125 46.4062C37.125 46.1327 37.0164 45.8704 36.823 45.677C36.6296 45.4836 36.3673 45.375 36.0938 45.375Z" fill="#7096EF"/>
</svg>
