<svg width="39" height="39" viewBox="0 0 39 39" fill="none" xmlns="http://www.w3.org/2000/svg">
<g clip-path="url(#clip0_7853_4)">
<path d="M19.5 39C30.2696 39 39 30.2696 39 19.5C39 8.73045 30.2696 0 19.5 0C8.73045 0 0 8.73045 0 19.5C0 30.2696 8.73045 39 19.5 39Z" fill="#039BE5"/>
<path d="M8.92464 19.0776L27.7259 11.8285C28.5985 11.5132 29.3606 12.0413 29.0779 13.3608L29.0795 13.3592L25.8783 28.4408C25.641 29.5101 25.0056 29.7701 24.1168 29.2663L19.2418 25.6735L16.8904 27.9387C16.6304 28.1987 16.411 28.4181 15.9073 28.4181L16.2534 23.457L25.2884 15.2946C25.6816 14.9485 25.2006 14.7535 24.6823 15.098L13.5169 22.1277L8.70364 20.6262C7.65877 20.2947 7.63602 19.5813 8.92464 19.0776Z" fill="white"/>
</g>
<defs>
<clipPath id="clip0_7853_4">
<rect width="39" height="39" fill="white"/>
</clipPath>
</defs>
</svg>
