<svg width="39" height="39" viewBox="0 0 39 39" fill="none" xmlns="http://www.w3.org/2000/svg">
<path d="M19.5 39C30.2696 39 39 30.2696 39 19.5C39 8.73045 30.2696 0 19.5 0C8.73045 0 0 8.73045 0 19.5C0 30.2696 8.73045 39 19.5 39Z" fill="#665CAC"/>
<path d="M21.5551 9.23682H17.4498C15.5445 9.23682 13.7171 9.99372 12.3698 11.341C11.0225 12.6883 10.2656 14.5157 10.2656 16.421V19.5C10.2651 20.86 10.6505 22.1923 11.3773 23.3418C12.104 24.4914 13.1421 25.4111 14.3709 25.994V29.4244C14.3721 29.4914 14.3928 29.5565 14.4305 29.6118C14.4682 29.6671 14.5213 29.7102 14.5831 29.7358C14.6449 29.7614 14.7129 29.7684 14.7787 29.756C14.8444 29.7435 14.9051 29.7121 14.9533 29.6656L17.9348 26.6842H21.5551C23.4605 26.6842 25.2878 25.9273 26.6351 24.58C27.9824 23.2327 28.7393 21.4053 28.7393 19.5V16.421C28.7393 14.5157 27.9824 12.6883 26.6351 11.341C25.2878 9.99372 23.4605 9.23682 21.5551 9.23682ZM24.244 22.7021L23.2177 23.7284C22.1247 24.7983 19.2715 23.577 16.7571 21.0087C14.2426 18.4403 13.1393 15.5589 14.1913 14.489L15.2176 13.4627C15.4187 13.2821 15.6803 13.1835 15.9506 13.1864C16.2208 13.1892 16.4802 13.2933 16.6775 13.4781L18.176 15.0175C18.295 15.1403 18.3808 15.2914 18.4253 15.4565C18.4699 15.6216 18.4717 15.7953 18.4307 15.9613C18.3896 16.1273 18.307 16.2802 18.1907 16.4055C18.0743 16.5308 17.928 16.6244 17.7654 16.6776C17.5245 16.7515 17.3213 16.9154 17.1981 17.1352C17.0748 17.3549 17.0409 17.6138 17.1035 17.8579C17.36 18.9971 18.8071 20.4237 19.8848 20.7033C20.1277 20.7612 20.3834 20.7285 20.604 20.6114C20.8246 20.4943 20.9949 20.3007 21.083 20.067C21.1399 19.904 21.2378 19.7584 21.3673 19.6442C21.4968 19.5301 21.6535 19.4511 21.8223 19.415C21.9912 19.3789 22.1664 19.3869 22.3313 19.4382C22.4961 19.4895 22.645 19.5823 22.7636 19.7078L24.2594 21.2473C24.4391 21.4478 24.5372 21.7084 24.5343 21.9777C24.5315 22.2469 24.4279 22.5054 24.244 22.7021ZM20.4364 14.1118C20.3344 14.1113 20.2324 14.1173 20.1311 14.1298C20.0864 14.1347 20.0413 14.1307 19.9982 14.1181C19.955 14.1056 19.9148 14.0846 19.8798 14.0565C19.8448 14.0284 19.8156 13.9937 19.794 13.9543C19.7724 13.9149 19.7588 13.8717 19.7539 13.827C19.749 13.7824 19.753 13.7372 19.7656 13.6941C19.7781 13.651 19.7991 13.6107 19.8272 13.5757C19.8553 13.5407 19.89 13.5116 19.9294 13.49C19.9688 13.4684 20.012 13.4547 20.0567 13.4498C20.1827 13.4353 20.3095 13.4285 20.4364 13.4293C21.3444 13.4286 22.2156 13.7885 22.8583 14.4299C23.5011 15.0712 23.863 15.9415 23.8643 16.8495C23.8652 16.9764 23.8583 17.1032 23.8438 17.2293C23.8389 17.2739 23.8253 17.3171 23.8037 17.3565C23.7821 17.3959 23.7529 17.4306 23.7179 17.4587C23.6829 17.4869 23.6427 17.5078 23.5995 17.5204C23.5564 17.5329 23.5113 17.5369 23.4666 17.532C23.422 17.5271 23.3787 17.5135 23.3393 17.4919C23.3 17.4703 23.2652 17.4412 23.2371 17.4061C23.209 17.3711 23.1881 17.3309 23.1755 17.2878C23.1629 17.2447 23.159 17.1995 23.1638 17.1548C23.175 17.0534 23.181 16.9515 23.1818 16.8495C23.1804 16.1225 22.8905 15.4258 22.3757 14.9124C21.8609 14.3991 21.1634 14.1111 20.4364 14.1118ZM22.489 16.8495C22.4816 16.9352 22.4423 17.0151 22.3789 17.0732C22.3155 17.1314 22.2326 17.1637 22.1465 17.1637C22.0605 17.1637 21.9775 17.1314 21.9141 17.0732C21.8507 17.0151 21.8114 16.9352 21.804 16.8495C21.804 16.4868 21.6599 16.139 21.4034 15.8825C21.147 15.626 20.7991 15.4819 20.4364 15.4819C20.3889 15.4861 20.3411 15.4803 20.296 15.4649C20.2509 15.4496 20.2095 15.425 20.1744 15.3928C20.1392 15.3606 20.1112 15.3214 20.092 15.2778C20.0728 15.2342 20.0629 15.1871 20.0629 15.1394C20.0629 15.0918 20.0728 15.0446 20.092 15.001C20.1112 14.9574 20.1392 14.9182 20.1744 14.886C20.2095 14.8538 20.2509 14.8293 20.296 14.8139C20.3411 14.7986 20.3889 14.7928 20.4364 14.7969C20.9808 14.7969 21.5029 15.0131 21.8878 15.3981C22.2728 15.783 22.489 16.3051 22.489 16.8495ZM25.0985 17.9605C25.0909 18.0071 25.0737 18.0517 25.0482 18.0915C25.0226 18.1312 24.9891 18.1652 24.9497 18.1914C24.9104 18.2176 24.8661 18.2354 24.8196 18.2437C24.7731 18.2521 24.7253 18.2507 24.6794 18.2397C24.6334 18.2288 24.5902 18.2084 24.5524 18.18C24.5146 18.1516 24.4831 18.1157 24.4599 18.0746C24.4366 18.0335 24.4221 17.988 24.4171 17.941C24.4122 17.894 24.4171 17.8465 24.4313 17.8014C24.5054 17.4913 24.5425 17.1735 24.5417 16.8546C24.5417 15.7659 24.1092 14.7217 23.3393 13.9518C22.5694 13.1819 21.5252 12.7494 20.4364 12.7494C20.3312 12.7494 20.2235 12.7494 20.1183 12.7494C20.0734 12.7528 20.0284 12.7473 19.9857 12.7332C19.943 12.7192 19.9035 12.6969 19.8694 12.6676C19.8006 12.6084 19.7582 12.5243 19.7514 12.4338C19.7445 12.3433 19.774 12.2538 19.8332 12.185C19.8923 12.1162 19.9764 12.0737 20.0669 12.0669C20.1901 12.0566 20.3133 12.0515 20.4364 12.0515C21.7076 12.0535 22.926 12.5599 23.8242 13.4595C24.7223 14.3591 25.2267 15.5783 25.2267 16.8495C25.2269 17.2235 25.1838 17.5963 25.0985 17.9605Z" fill="white"/>
</svg>
