<svg width="39" height="39" viewBox="0 0 39 39" fill="none" xmlns="http://www.w3.org/2000/svg">
<path d="M19.5 39C30.2696 39 39 30.2696 39 19.5C39 8.73045 30.2696 0 19.5 0C8.73045 0 0 8.73045 0 19.5C0 30.2696 8.73045 39 19.5 39Z" fill="#4065D6"/>
<path d="M28.491 25.0728C28.0342 25.137 25.8148 25.0728 25.6994 25.0728C25.1256 25.0786 24.5725 24.8584 24.1599 24.4596C23.6904 24.008 23.267 23.5103 22.818 23.0407C22.6817 22.8976 22.535 22.7647 22.3792 22.643C22.0123 22.3633 21.6506 22.4275 21.4786 22.8585C21.344 23.3257 21.2513 23.804 21.2015 24.2877C21.1935 24.4914 21.105 24.6837 20.9554 24.8222C20.8058 24.9607 20.6073 25.0343 20.4036 25.0266C20.1008 25.042 19.7981 25.0497 19.4979 25.042C18.4058 25.0364 17.3306 24.7726 16.3599 24.2723C15.312 23.6867 14.3986 22.8878 13.6786 21.9272C12.5268 20.4062 11.5314 18.773 10.7075 17.0522C10.6638 16.9649 9.79917 15.1253 9.77865 15.0406C9.72504 14.92 9.71992 14.7835 9.76436 14.6592C9.80879 14.535 9.89936 14.4327 10.0173 14.3735C10.1712 14.3145 13.0218 14.3735 13.068 14.3735C13.2803 14.3715 13.4876 14.4373 13.6598 14.5615C13.832 14.6857 13.9599 14.8616 14.025 15.0637C14.5522 16.4077 15.2722 17.6679 16.1623 18.8046C16.2865 18.9578 16.4326 19.0918 16.596 19.2023C16.638 19.2429 16.6902 19.2716 16.7471 19.2853C16.804 19.299 16.8635 19.2973 16.9195 19.2803C16.9755 19.2632 17.0259 19.2316 17.0656 19.1886C17.1052 19.1455 17.1326 19.0927 17.145 19.0355C17.2578 18.6645 17.3242 18.281 17.3426 17.8937C17.358 17.124 17.3426 16.6108 17.299 15.8411C17.3145 15.5788 17.2259 15.321 17.0525 15.1235C16.8791 14.9261 16.6348 14.805 16.3727 14.7866C16.1469 14.7481 16.1161 14.5633 16.2727 14.3786C16.5729 13.9963 16.9885 13.9347 17.4401 13.9116C18.1226 13.8731 18.8077 13.9116 19.4927 13.9116H19.6415C19.9423 13.9109 20.2424 13.941 20.537 14.0014C20.7093 14.0367 20.8655 14.1267 20.9825 14.258C21.0995 14.3893 21.1709 14.5549 21.1861 14.7301C21.2207 14.924 21.2362 15.1208 21.2323 15.3177C21.2144 16.1567 21.1733 16.9957 21.1631 17.8373C21.1569 18.1697 21.187 18.5018 21.2529 18.8277C21.3529 19.2741 21.6583 19.387 21.9713 19.0612C22.3614 18.6425 22.719 18.1948 23.0412 17.7218C23.6205 16.8607 24.0976 15.9351 24.4627 14.9636C24.6602 14.4658 24.8116 14.3555 25.3479 14.3555H28.3729C28.5534 14.3525 28.7333 14.3767 28.9066 14.4274C28.9678 14.4437 29.0249 14.4724 29.0745 14.5117C29.1241 14.551 29.1651 14.6001 29.1949 14.6559C29.2248 14.7117 29.2428 14.7731 29.2479 14.8362C29.2531 14.8993 29.2452 14.9627 29.2248 15.0226C29.0479 15.6663 28.7443 16.2682 28.3319 16.793C27.7161 17.6628 27.0695 18.5121 26.4383 19.3588C26.3584 19.4696 26.2856 19.5853 26.2202 19.7052C25.9842 20.1311 26.0021 20.3723 26.3434 20.7315C26.8925 21.296 27.48 21.8271 28.0086 22.407C28.3984 22.8295 28.7504 23.2854 29.0606 23.7694C29.4506 24.3955 29.2119 24.9702 28.491 25.0728Z" fill="white"/>
</svg>
