<svg width="39" height="39" viewBox="0 0 39 39" fill="none" xmlns="http://www.w3.org/2000/svg">
<path d="M19.5 39C30.2696 39 39 30.2696 39 19.5C39 8.73045 30.2696 0 19.5 0C8.73045 0 0 8.73045 0 19.5C0 30.2696 8.73045 39 19.5 39Z" fill="#2AA81A"/>
<path d="M26.3794 12.6211C24.7568 10.98 22.6009 9.97324 20.301 9.78241C18.0011 9.59158 15.7088 10.2293 13.8379 11.5804C11.967 12.9316 10.6408 14.9071 10.0987 17.1504C9.55669 19.3936 9.83452 21.7567 10.8821 23.813L9.85575 28.7958C9.84476 28.8456 9.84433 28.8971 9.8545 28.947C9.86466 28.997 9.88519 29.0442 9.91476 29.0857C9.9571 29.1486 10.0176 29.197 10.0882 29.2245C10.1589 29.252 10.2362 29.2573 10.3099 29.2397L15.1849 28.0825C17.2356 29.1026 19.5817 29.3619 21.8057 28.8143C24.0297 28.2667 25.9872 26.9476 27.3298 25.092C28.6724 23.2364 29.313 20.9645 29.1376 18.6809C28.9621 16.3972 27.982 14.2498 26.3717 12.6211H26.3794ZM24.8554 24.7752C23.7331 25.8954 22.288 26.6358 20.7232 26.8921C19.1585 27.1485 17.5527 26.9079 16.1317 26.2044L15.4492 25.8657L12.4549 26.5738V26.5353L13.0861 23.5154L12.7525 22.8586C12.0259 21.4337 11.7694 19.8153 12.0197 18.2356C12.27 16.6559 13.0143 15.1961 14.1457 14.0656C15.5664 12.6464 17.4924 11.8492 19.5005 11.8492C21.5087 11.8492 23.4347 12.6464 24.8554 14.0656L24.8887 14.1118C26.2909 15.5355 27.0737 17.4557 27.0665 19.454C27.0593 21.4523 26.2627 23.3668 24.8502 24.7803L24.8554 24.7752Z" fill="white"/>
<path d="M24.5943 22.579C24.2274 23.1563 23.6449 23.8618 22.9188 24.0389C21.6359 24.3468 19.6833 24.0389 17.2381 21.7784L17.2074 21.7502C15.0803 19.7643 14.5158 18.1093 14.6416 16.7982C14.716 16.0516 15.3369 15.3793 15.8603 14.938C15.9435 14.8679 16.042 14.8181 16.1479 14.7928C16.2538 14.7675 16.3641 14.7673 16.47 14.7922C16.576 14.8172 16.6747 14.8665 16.7581 14.9364C16.8416 15.0063 16.9076 15.0947 16.9508 15.1946L17.7385 16.9753C17.7899 17.0899 17.8092 17.2163 17.7943 17.3411C17.7794 17.4658 17.7308 17.5842 17.6538 17.6834L17.2535 18.1966C17.1703 18.3031 17.1208 18.432 17.1112 18.5668C17.1016 18.7016 17.1324 18.8363 17.1997 18.9535C17.5799 19.5139 18.0348 20.0197 18.5518 20.457C19.1081 20.9924 19.739 21.4444 20.4249 21.799C20.55 21.8494 20.6874 21.8615 20.8194 21.8336C20.9515 21.8057 21.0723 21.7392 21.1664 21.6424L21.6256 21.1755C21.713 21.0815 21.8247 21.0135 21.9484 20.9791C22.072 20.9447 22.2027 20.9452 22.3261 20.9805L24.1991 21.5167C24.3053 21.5469 24.4028 21.6017 24.4838 21.6766C24.5649 21.7515 24.6272 21.8444 24.6656 21.9478C24.7041 22.0512 24.7177 22.1622 24.7053 22.2719C24.6929 22.3815 24.6549 22.4867 24.5943 22.579Z" fill="white"/>
</svg>
